<svg id="_006-real-estate-1" data-name="006-real-estate-1" xmlns="http://www.w3.org/2000/svg" width="61.325" height="61.322" viewBox="0 0 61.325 61.322">
  <path id="Path_8571" data-name="Path 8571" d="M191.03,431.969h0a1.2,1.2,0,1,0,1.2,1.2A1.2,1.2,0,0,0,191.03,431.969Zm0,0" transform="translate(-167.095 -380.229)" fill="#1b85e7"/>
  <path id="Path_8572" data-name="Path 8572" d="M163.433,293.719a3.593,3.593,0,1,0,3.593,3.593A3.6,3.6,0,0,0,163.433,293.719Zm0,4.791a1.2,1.2,0,1,1,1.2-1.2A1.2,1.2,0,0,1,163.433,298.51Zm0,0" transform="translate(-140.695 -258.538)" fill="#1b85e7"/>
  <path id="Path_8573" data-name="Path 8573" d="M323.339,242.36a1.2,1.2,0,0,0,0-2.4h0a1.2,1.2,0,1,0,0,2.4Zm0,0" transform="translate(-283.556 -211.223)" fill="#1b85e7"/>
  <path id="Path_8574" data-name="Path 8574" d="M295.738,101.715a3.593,3.593,0,1,0,3.593,3.593A3.6,3.6,0,0,0,295.738,101.715Zm0,4.791a1.2,1.2,0,1,1,1.2-1.2A1.2,1.2,0,0,1,295.738,106.505Zm0,0" transform="translate(-257.153 -89.532)" fill="#1b85e7"/>
  <path id="Path_8575" data-name="Path 8575" d="M61.283,17.127a3.564,3.564,0,0,0-1.423-2.346L40.759.728a3.607,3.607,0,0,0-4.3-.037L30.745,4.9a1.2,1.2,0,0,0,1.42,1.93L37.88,2.621a1.2,1.2,0,0,1,1.431.015l.019.015L58.441,16.712a1.192,1.192,0,0,1-1.408,1.925L39.295,5.585a1.2,1.2,0,0,0-1.42,0L20.138,18.635a1.192,1.192,0,1,1-1.408-1.924l5.716-4.206a1.2,1.2,0,1,0-1.42-1.93l-5.715,4.2a3.588,3.588,0,0,0,3.566,6.178v2.556c-.089.054-.177.112-.263.175L14.9,27.894a1.2,1.2,0,1,0,1.42,1.93l5.716-4.205a1.2,1.2,0,0,1,1.43.015l.02.015L42.595,39.71a1.192,1.192,0,0,1-1.408,1.924L23.448,28.583a1.2,1.2,0,0,0-1.42,0L4.292,41.632a1.192,1.192,0,1,1-1.408-1.924L8.6,35.5a1.2,1.2,0,0,0-1.42-1.93l-5.715,4.2a3.587,3.587,0,0,0,3.566,6.176V60.123a1.2,1.2,0,0,0,1.2,1.2H39.247a1.2,1.2,0,0,0,1.2-1.2V43.953A3.586,3.586,0,0,0,44.6,38.323H55.094a1.2,1.2,0,0,0,1.2-1.2V20.957a3.548,3.548,0,0,0,1.438.306,3.64,3.64,0,0,0,.554-.043,3.587,3.587,0,0,0,3-4.092ZM16.75,54.134H12.218V49.343H16.75Zm2.4,1.2h0V48.147h0v-1.2h7.187V58.925H19.145Zm9.582-5.989h4.531v4.791H28.727Zm0,9.582v-2.4h5.729a1.2,1.2,0,0,0,1.2-1.2V48.145a1.2,1.2,0,0,0-1.2-1.2H28.727a2.4,2.4,0,0,0-2.4-2.4H19.145a2.4,2.4,0,0,0-2.4,2.4H11.02a1.2,1.2,0,0,0-1.2,1.2v7.187a1.2,1.2,0,0,0,1.2,1.2H16.75v2.4H7.427V42.3L22.738,31.034,38.049,42.3V58.926Zm15.847-32.58H49.1v4.791H44.574Zm-2.4,9.582H41.5l-6.505-4.786V23.95h7.187ZM32.6,29.379l-4.123-3.033H32.6Zm11.978,6.549v-2.4H50.3a1.2,1.2,0,0,0,1.2-1.2V25.148a1.2,1.2,0,0,0-1.2-1.2H44.574a2.4,2.4,0,0,0-2.4-2.4H34.992a2.4,2.4,0,0,0-2.4,2.4H26.868a1.2,1.2,0,0,0-.972.5l-.984-.724a3.565,3.565,0,0,0-1.638-.687V19.3L38.585,8.037,53.9,19.3V35.928Zm0,0" transform="translate(0 0.001)" fill="#1b85e7"/>
  <path id="Path_8576" data-name="Path 8576" d="M221.592,65.046a1.2,1.2,0,0,0,.766-.277h0a1.2,1.2,0,1,0-.767.278Zm0,0" transform="translate(-193.996 -55.146)" fill="#1b85e7"/>
  <path id="Path_8577" data-name="Path 8577" d="M89.286,257.05a1.2,1.2,0,0,0,.766-.277h0a1.2,1.2,0,1,0-.767.278Zm0,0" transform="translate(-77.537 -224.152)" fill="#1b85e7"/>
</svg>
