<svg id="_005-development" data-name="005-development" xmlns="http://www.w3.org/2000/svg" width="61.325" height="61.325" viewBox="0 0 61.325 61.325">
  <path id="Path_8566" data-name="Path 8566" d="M60.246,24.68l-5.283-.527a24.942,24.942,0,0,0-2.516-6.069l3.364-4.11a1.2,1.2,0,0,0-.08-1.606L48.956,5.593a1.2,1.2,0,0,0-1.606-.08L43.242,8.877a24.941,24.941,0,0,0-6.07-2.517l-.527-5.282A1.2,1.2,0,0,0,35.453,0H25.871A1.2,1.2,0,0,0,24.68,1.079l-.527,5.282a24.953,24.953,0,0,0-6.069,2.517l-4.11-3.364a1.2,1.2,0,0,0-1.517,1.853l4.762,3.9a1.2,1.2,0,0,0,1.394.089A22.579,22.579,0,0,1,25.53,8.486a1.2,1.2,0,0,0,.923-1.049l.5-5.042h7.413l.5,5.042A1.2,1.2,0,0,0,35.8,8.486a22.572,22.572,0,0,1,6.917,2.868,1.2,1.2,0,0,0,1.394-.088l3.924-3.212L53.271,13.3,50.059,17.22a1.2,1.2,0,0,0-.089,1.394,22.561,22.561,0,0,1,2.867,6.917,1.2,1.2,0,0,0,1.049.923l5.044.5v7.413l-5.043.5a1.2,1.2,0,0,0-1.049.923,22.574,22.574,0,0,1-2.868,6.917,1.2,1.2,0,0,0,.089,1.394l3.211,3.924-5.242,5.242-3.924-3.212a1.2,1.2,0,0,0-1.394-.089,22.567,22.567,0,0,1-6.917,2.868,1.2,1.2,0,0,0-.923,1.049l-.5,5.042H26.955l-.5-5.043a1.2,1.2,0,0,0-.923-1.048,22.575,22.575,0,0,1-6.917-2.868,1.2,1.2,0,0,0-1.394.089L13.3,53.271,8.053,48.029l3.212-3.924a1.2,1.2,0,0,0,.089-1.394A22.571,22.571,0,0,1,8.486,35.8a1.2,1.2,0,0,0-1.049-.923l-5.042-.5V26.956l5.043-.5a1.2,1.2,0,0,0,1.049-.923,22.574,22.574,0,0,1,2.868-6.917,1.2,1.2,0,0,0-.089-1.394l-3.9-4.762a1.2,1.2,0,0,0-1.853,1.517l3.364,4.109a24.961,24.961,0,0,0-2.516,6.07l-5.282.527A1.2,1.2,0,0,0,0,25.871v9.582a1.2,1.2,0,0,0,1.079,1.192l5.282.527a24.96,24.96,0,0,0,2.517,6.069L5.513,47.351a1.2,1.2,0,0,0,.08,1.606l6.775,6.775a1.2,1.2,0,0,0,1.606.08l4.109-3.364a24.958,24.958,0,0,0,6.069,2.516l.527,5.282a1.2,1.2,0,0,0,1.192,1.079h9.582a1.2,1.2,0,0,0,1.192-1.079l.527-5.282a24.943,24.943,0,0,0,6.069-2.517l4.109,3.364a1.2,1.2,0,0,0,1.606-.08l6.775-6.775a1.2,1.2,0,0,0,.08-1.606l-3.364-4.109a24.953,24.953,0,0,0,2.516-6.07l5.282-.526a1.2,1.2,0,0,0,1.079-1.192V25.871A1.2,1.2,0,0,0,60.246,24.68Zm0,0" transform="translate(0 0)" fill="#1b85e7"/>
  <path id="Path_8567" data-name="Path 8567" d="M122.262,117.127a1.2,1.2,0,0,0,1.64-.422,20.358,20.358,0,1,0-7.2,7.2,1.2,1.2,0,1,0-1.219-2.062,17.961,17.961,0,1,1,6.354-6.354A1.2,1.2,0,0,0,122.262,117.127Zm0,0" transform="translate(-75.699 -75.699)" fill="#1b85e7"/>
  <path id="Path_8568" data-name="Path 8568" d="M73.246,74.451a1.192,1.192,0,0,0,.805-.311h0a1.2,1.2,0,1,0-.806.312Zm0,0" transform="translate(-63.418 -63.425)" fill="#1b85e7"/>
  <path id="Path_8569" data-name="Path 8569" d="M360.337,361.528a1.2,1.2,0,1,0-.767-2.118h0a1.2,1.2,0,0,0,.768,2.118Zm0,0" transform="translate(-316.122 -316.117)" fill="#1b85e7"/>
  <path id="Path_8570" data-name="Path 8570" d="M147.2,150.347a1.2,1.2,0,0,0-1.2,1.2v11.978a1.2,1.2,0,0,0,1.2,1.2h23.955a1.2,1.2,0,0,0,1.2-1.2V151.544a1.2,1.2,0,0,0-1.2-1.2h-5.484v-.619a1.2,1.2,0,0,0,1.4-1.941l-7.186-5.287a1.2,1.2,0,0,0-1.42,0l-7.187,5.287a1.2,1.2,0,0,0,1.4,1.941v.62Zm5.484,2.4v2.093l-1.086.8h-3.2v-2.892Zm6.494.289,4.1,3.015v6.278h-2.9v-4.192a1.2,1.2,0,1,0-2.4,0v4.192h-2.9v-6.278Zm-10.78,5h3.593a1.2,1.2,0,0,0,.693-.222v4.516H148.4Zm17.273,4.295v-4.516a1.2,1.2,0,0,0,.693.222h3.593v4.295Zm4.286-9.582v2.892h-3.2l-1.086-.8v-2.093Zm-10.78-7.792,4.1,3.015v5.107l-2.9-2.134v-1.715a1.2,1.2,0,1,0-2.4,0v1.715l-2.9,2.134v-5.107Zm0,0" transform="translate(-128.513 -125.226)" fill="#1b85e7"/>
</svg>
