<svg id="_002-real-estate" data-name="002-real-estate" xmlns="http://www.w3.org/2000/svg" width="61.325" height="50.305" viewBox="0 0 61.325 50.305">
  <path id="Path_8546" data-name="Path 8546" d="M60.127,47.91H41.788a2.776,2.776,0,0,1,1.676-1.462,1.2,1.2,0,0,0,.7-1.694A2.791,2.791,0,0,1,47.019,40.7l.042.005a2.784,2.784,0,0,1,.866.283,1.2,1.2,0,0,0,1.694-.7,2.79,2.79,0,0,1,5.319,0,1.2,1.2,0,0,0,1.694.7,2.785,2.785,0,0,1,2.829.153,1.2,1.2,0,0,0,1.329-1.993,5.179,5.179,0,0,0-4.085-.726,5.19,5.19,0,0,0-8.337-.7V33.047l.317.233a1.2,1.2,0,0,0,.71.233,1.2,1.2,0,0,0,.966-.49l1.472-2.009a43.789,43.789,0,0,0,6.073-.876,4.34,4.34,0,0,0,1.4,1.789l.039.034A1.2,1.2,0,1,0,60.9,30.141l-.04-.034a2.915,2.915,0,0,1-.6-.611,2.035,2.035,0,0,0,.043-3.548,21.319,21.319,0,0,1-3.432-2.532q.5-.108,1.009-.244A1.013,1.013,0,0,0,58,23.136a2.033,2.033,0,0,0,.377-3.692,17.548,17.548,0,0,1-3.466-2.6,8.956,8.956,0,0,0,2.52-.963q.036-.021.072-.045a2.034,2.034,0,0,0-.3-3.592,12.978,12.978,0,0,1-5.851-5.439c-.658-1.02-1.42-2.017-2.837-2.017s-2.178,1-2.837,2.017a13.019,13.019,0,0,1-5.8,5.416,2.035,2.035,0,0,0-.284,3.66,8.95,8.95,0,0,0,2.518.963,16.645,16.645,0,0,1-1.7,1.439l-9.041-6.652a1.2,1.2,0,0,0-1.42,0l-3.364,2.475a17.093,17.093,0,0,1-2.583-2.053,8.943,8.943,0,0,0,2.519-.963c.025-.015.05-.03.074-.047a2.012,2.012,0,0,0,.782-.926,2.037,2.037,0,0,0-1.085-2.664,12.984,12.984,0,0,1-5.851-5.439C19.786,1,19.024,0,17.607,0S15.429,1,14.77,2.017a13.013,13.013,0,0,1-5.8,5.415,2.036,2.036,0,0,0-.284,3.661,8.948,8.948,0,0,0,2.519.963,17.5,17.5,0,0,1-3.385,2.549,2.036,2.036,0,0,0,.408,3.777q.507.135,1.009.244a24.731,24.731,0,0,1-2.073,1.657,4.511,4.511,0,0,0-3.725-1.151,4.04,4.04,0,0,0-3.4,2.826,1.2,1.2,0,1,0,2.3.669A1.694,1.694,0,0,1,3.787,21.5a2.12,2.12,0,0,1,1.372.255A2.033,2.033,0,0,0,6.3,24.886a42.511,42.511,0,0,0,4.383.925L8.393,27.5a1.2,1.2,0,0,0-.256,1.673l2.826,3.855a1.2,1.2,0,0,0,1.676.257l.317-.233v4.681a5.191,5.191,0,0,0-8.337.7,5.18,5.18,0,0,0-4.085.725,1.2,1.2,0,1,0,1.329,1.993,2.784,2.784,0,0,1,2.828-.153,1.2,1.2,0,0,0,1.694-.7,2.79,2.79,0,0,1,5.319,0,1.2,1.2,0,0,0,1.694.7,2.8,2.8,0,0,1,.867-.283l.039,0a2.79,2.79,0,0,1,2.855,4.048,1.2,1.2,0,0,0,.7,1.694,2.775,2.775,0,0,1,1.677,1.462H1.2a1.2,1.2,0,0,0,0,2.4H60.127a1.2,1.2,0,1,0,0-2.4ZM19.858,43.119a5.159,5.159,0,0,0-.779-2.4h5.594v2.4Zm7.21-7.187h7.187V47.91H27.069Zm14.4,7.187H36.651v-2.4h5.595A5.153,5.153,0,0,0,41.466,43.119Zm-4.815,2.4h3.912a5.157,5.157,0,0,0-1.3,2.4H36.651Zm8.932-30.082a1.2,1.2,0,0,0-1.027-.684,8.911,8.911,0,0,1-3.107-.611,15.679,15.679,0,0,0,6.237-6.03c.593-.92.738-.92.824-.92s.231,0,.824.92a15.671,15.671,0,0,0,6.237,6.03,8.919,8.919,0,0,1-3.107.611,1.2,1.2,0,0,0-.9,1.913,18.259,18.259,0,0,0,4.864,4.4,17.212,17.212,0,0,1-2.27.339,1.2,1.2,0,0,0-.741,2.049,31.171,31.171,0,0,0,4.959,4.123,40.676,40.676,0,0,1-4.955.885,1.2,1.2,0,0,0-.487-.963l-10.51-7.733a17.024,17.024,0,0,0,3.038-3.1A1.2,1.2,0,0,0,45.583,15.432ZM12.185,30.64l-1.41-1.923,5.957-4.383a1.2,1.2,0,0,0-1.42-1.93L13.48,23.752a40.894,40.894,0,0,1-5.737-.969A31.164,31.164,0,0,0,12.7,18.66a1.2,1.2,0,0,0-.74-2.049,17.286,17.286,0,0,1-2.271-.339,18.251,18.251,0,0,0,4.864-4.4,1.2,1.2,0,0,0-.9-1.913,8.9,8.9,0,0,1-3.107-.611,15.678,15.678,0,0,0,6.238-6.03c.593-.919.737-.919.824-.919s.231,0,.824.92a15.678,15.678,0,0,0,6.237,6.03,8.906,8.906,0,0,1-3.107.611,1.2,1.2,0,0,0-.9,1.913,17.722,17.722,0,0,0,3.887,3.743l-1.513,1.113a1.2,1.2,0,1,0,1.42,1.93l2.9-2.131.011-.008,3.3-2.431L50.549,28.717l-.322.44h0L49.139,30.64,31.372,17.568a1.2,1.2,0,0,0-1.42,0Zm3.166,7.685v-7.04L30.662,20.02,45.973,31.285v7.04a5.155,5.155,0,0,0-2.417.98,1.2,1.2,0,0,0-1.177-.977H36.651v-2.4h.937a1.2,1.2,0,0,0,0-2.4H18.945a1.2,1.2,0,1,0,0,2.4h5.729v2.4H18.945a1.2,1.2,0,0,0-1.177.977A5.151,5.151,0,0,0,15.351,38.325Zm5.41,7.189h3.912v2.4H22.061A5.153,5.153,0,0,0,20.761,45.514Zm0,0" transform="translate(0)" fill="#1b85e7"/>
  <path id="Path_8547" data-name="Path 8547" d="M257.194,340h0a1.2,1.2,0,1,0,1.2,1.2A1.2,1.2,0,0,0,257.193,340Zm0,0" transform="translate(-225.334 -299.273)" fill="#1b85e7"/>
  <path id="Path_8548" data-name="Path 8548" d="M229.593,208.933A3.593,3.593,0,1,0,226,205.339,3.6,3.6,0,0,0,229.593,208.933Zm0-4.791a1.2,1.2,0,1,1-1.2,1.2A1.2,1.2,0,0,1,229.593,204.142Zm0,0" transform="translate(-198.931 -177.582)" fill="#1b85e7"/>
  <path id="Path_8549" data-name="Path 8549" d="M30.474,222.69a1.2,1.2,0,1,0-2.4,0h0a1.2,1.2,0,0,0,2.4,0Zm0,0" transform="translate(-24.715 -194.963)" fill="#1b85e7"/>
  <path id="Path_8550" data-name="Path 8550" d="M16.078,278.19h0a1.2,1.2,0,1,0,1.2-1.2A1.2,1.2,0,0,0,16.078,278.191Zm0,0" transform="translate(-14.152 -243.815)" fill="#1b85e7"/>
  <path id="Path_8551" data-name="Path 8551" d="M74.724,357.69a1.2,1.2,0,1,0-2.4,0h0a1.2,1.2,0,0,0,2.4,0Zm0,0" transform="translate(-63.665 -313.793)" fill="#1b85e7"/>
  <path id="Path_8552" data-name="Path 8552" d="M406.074,360.7h0a1.2,1.2,0,1,0,1.2-1.2A1.2,1.2,0,0,0,406.074,360.7Zm0,0" transform="translate(-357.437 -316.441)" fill="#1b85e7"/>
  <path id="Path_8553" data-name="Path 8553" d="M466.824,275.947h0a1.2,1.2,0,1,0,1.2-1.2A1.2,1.2,0,0,0,466.824,275.949Zm0,0" transform="translate(-410.91 -241.842)" fill="#1b85e7"/>
  <path id="Path_8554" data-name="Path 8554" d="M156.529,161.6a1.2,1.2,0,1,0,1.329,1.993h0a1.2,1.2,0,1,0-1.329-1.993Zm0,0" transform="translate(-137.311 -142.07)" fill="#1b85e7"/>
  <path id="Path_8555" data-name="Path 8555" d="M345.018,282.4h0a1.2,1.2,0,1,0-1.2-1.2A1.2,1.2,0,0,0,345.019,282.4Zm0,0" transform="translate(-302.639 -246.463)" fill="#1b85e7"/>
</svg>
