<svg id="_001-placeholder" data-name="001-placeholder" xmlns="http://www.w3.org/2000/svg" width="61.325" height="55.097" viewBox="0 0 61.325 55.097">
  <path id="Path_8542" data-name="Path 8542" d="M182.415,76.1A10.013,10.013,0,1,0,172.4,66.083,10.024,10.024,0,0,0,182.415,76.1Zm0-17.63a7.617,7.617,0,1,1-7.617,7.617A7.626,7.626,0,0,1,182.415,58.466Zm0,0" transform="translate(-151.753 -49.414)" fill="#1b85e7"/>
  <path id="Path_8543" data-name="Path 8543" d="M61.126,53.738,47.7,33.425a1.2,1.2,0,0,0-.866-.53l-5.411-.609c3.244-4.713,5.908-10.059,5.908-15.117A16.688,16.688,0,0,0,30.662.5,16.489,16.489,0,0,0,23.1,2.31,1.2,1.2,0,0,0,24.19,4.444,14.118,14.118,0,0,1,30.662,2.9,14.289,14.289,0,0,1,44.936,17.169c0,8.892-9.626,19.34-14.251,24.362l-.022.024-.022-.024c-4.626-5.021-14.251-15.469-14.251-24.361A14.121,14.121,0,0,1,17.938,10.7,1.2,1.2,0,1,0,15.8,9.608a16.491,16.491,0,0,0-1.81,7.561c0,5.392,3.026,11.11,6.556,16.04l-6.522-1.626a1.2,1.2,0,0,0-1.194.377L.294,46.395a1.2,1.2,0,0,0,.4,1.874L16.45,55.488a1.2,1.2,0,0,0,.812.067l19.272-5.209,6.846,1.532A1.2,1.2,0,0,0,43.9,49.54l-6.31-1.412L36.439,38.7c1.1-1.285,2.252-2.69,3.376-4.182l6.2.7L57.49,52.581l-4.237-.948a1.2,1.2,0,0,0-.523,2.337l7.135,1.6a1.222,1.222,0,0,0,.262.029,1.2,1.2,0,0,0,1-1.858ZM14.161,34.084l7.423,1.851L16.219,52.747,3.151,46.758ZM35.192,48.227,18.758,52.669l4.918-15.409c1.926,2.337,3.788,4.359,5.2,5.894.325.352.626.679.9.979a1.2,1.2,0,0,0,1.769,0c.274-.3.575-.626.9-.979.562-.61,1.195-1.3,1.874-2.05Zm0,0" transform="translate(0 -0.5)" fill="#1b85e7"/>
  <path id="Path_8544" data-name="Path 8544" d="M155.863,40.723a1.2,1.2,0,1,0-.809-2.081h0a1.2,1.2,0,0,0,.81,2.08Zm0,0" transform="translate(-136.14 -33.797)" fill="#1b85e7"/>
  <path id="Path_8545" data-name="Path 8545" d="M394.88,418.463h0a1.2,1.2,0,1,0,.872,1.453A1.2,1.2,0,0,0,394.879,418.463Zm0,0" transform="translate(-346.272 -368.37)" fill="#1b85e7"/>
</svg>
