<svg id="_003-protection" data-name="003-protection" xmlns="http://www.w3.org/2000/svg" width="49.514" height="61.325" viewBox="0 0 49.514 61.325">
  <path id="Path_8556" data-name="Path 8556" d="M73.166,75.477a1.2,1.2,0,0,0,1.654-.361c4.494-7,5.274-16.38,5.469-22.823a1.2,1.2,0,0,0-.847-1.182A15.341,15.341,0,0,1,69.22,40.852,1.2,1.2,0,0,0,68.073,40H52.689a1.2,1.2,0,0,0-1.147.852A15.341,15.341,0,0,1,41.32,51.111a1.2,1.2,0,0,0-.847,1.182c.193,6.36.956,15.622,5.33,22.6,3.132,5,7.786,8.388,14.228,10.36a1.2,1.2,0,0,0,.7,0A29.309,29.309,0,0,0,67.608,82.2a1.2,1.2,0,0,0-1.263-2.036,26.642,26.642,0,0,1-5.964,2.689c-5.685-1.809-9.792-4.832-12.549-9.231-3.871-6.179-4.7-14.485-4.935-20.515A17.725,17.725,0,0,0,53.555,42.4H67.207A17.725,17.725,0,0,0,77.865,53.109c-.233,6.107-1.084,14.517-5.061,20.713A1.2,1.2,0,0,0,73.166,75.477Zm0,0" transform="translate(-35.624 -35.209)" fill="#1b85e7"/>
  <path id="Path_8557" data-name="Path 8557" d="M42.067,44.159a30.017,30.017,0,0,0,3.262-5.536c3.707-8.133,4.183-17.978,4.183-25.646a1.2,1.2,0,0,0-1.2-1.2A10.594,10.594,0,0,1,37.733,1.2a1.2,1.2,0,0,0-1.2-1.2H12.976a1.2,1.2,0,0,0-1.2,1.2,10.536,10.536,0,0,1-.7,3.794,1.2,1.2,0,0,0,2.236.859A12.889,12.889,0,0,0,14.119,2.4H35.392A13,13,0,0,0,47.113,14.12C46.99,31.109,43.97,47.332,24.755,52.643,5.541,47.332,2.522,31.109,2.4,14.12a12.891,12.891,0,0,0,3.452-.805,1.2,1.2,0,0,0-.859-2.236,10.531,10.531,0,0,1-3.794.7,1.2,1.2,0,0,0-1.2,1.2c0,7.668.475,17.514,4.183,25.646a29.991,29.991,0,0,0,3.262,5.536L.35,51.254a1.2,1.2,0,0,0,.674,2.032l6.12.895.895,6.12a1.2,1.2,0,0,0,2.032.674l8.17-8.17a37.672,37.672,0,0,0,6.206,2.237,1.2,1.2,0,0,0,.62,0A37.672,37.672,0,0,0,31.272,52.8l8.17,8.17a1.2,1.2,0,0,0,2.032-.674l.895-6.12,6.12-.895a1.2,1.2,0,0,0,.674-2.032Zm-32,13.434-.679-4.642a1.2,1.2,0,0,0-1.012-1.012L3.73,51.261l5.239-5.238a26.74,26.74,0,0,0,2.665,2.6,28.48,28.48,0,0,0,4.372,3.032Zm31.075-5.654a1.2,1.2,0,0,0-1.012,1.012l-.678,4.642-5.942-5.942a28.457,28.457,0,0,0,4.372-3.032,26.74,26.74,0,0,0,2.665-2.6l5.239,5.238Zm0,0" transform="translate(0.001)" fill="#1b85e7"/>
  <path id="Path_8558" data-name="Path 8558" d="M70.74,71.936a1.194,1.194,0,0,0,.806-.312h0a1.2,1.2,0,1,0-.806.312Zm0,0" transform="translate(-61.212 -61.211)" fill="#1b85e7"/>
  <path id="Path_8559" data-name="Path 8559" d="M283.85,349.373a1.2,1.2,0,0,0,1.694,1.694h0a1.2,1.2,0,0,0-1.695-1.693Zm0,0" transform="translate(-249.543 -307.217)" fill="#1b85e7"/>
  <path id="Path_8560" data-name="Path 8560" d="M123.045,116.658V104.681a1.2,1.2,0,0,0-1.2-1.2h-5.484v-.62a1.2,1.2,0,0,0,1.4-1.941l-7.187-5.287a1.2,1.2,0,0,0-1.42,0l-7.187,5.287a1.2,1.2,0,0,0,1.4,1.941v.619H97.893a1.2,1.2,0,0,0-1.2,1.2v11.977a1.2,1.2,0,0,0,1.2,1.2h23.955A1.2,1.2,0,0,0,123.045,116.658Zm-2.4-10.779v2.892h-3.2l-1.086-.8v-2.093Zm-10.78,4.192a1.2,1.2,0,0,0-1.2,1.2v4.192h-2.9v-6.277l4.1-3.015,4.1,3.015v6.277h-2.9v-4.192A1.2,1.2,0,0,0,109.87,110.071Zm0-11.984,4.1,3.015v5.107l-2.9-2.134v-1.715a1.2,1.2,0,0,0-2.4,0v1.715l-2.9,2.134V101.1Zm-6.494,7.792v2.093l-1.086.8h-3.2v-2.892Zm-4.286,5.287h3.593a1.2,1.2,0,0,0,.693-.222v4.516H99.09Zm17.273,4.294v-4.516a1.2,1.2,0,0,0,.693.222h3.593v4.294Zm0,0" transform="translate(-85.113 -83.976)" fill="#1b85e7"/>
</svg>
