<svg id="_007-deal" data-name="007-deal" xmlns="http://www.w3.org/2000/svg" width="61.324" height="49.119" viewBox="0 0 61.324 49.119">
  <path id="Path_8578" data-name="Path 8578" d="M60.974,14.558,47.263.847a1.2,1.2,0,0,0-1.694,0l-5.13,5.13a1.2,1.2,0,0,0,0,1.694L41.7,8.932l-2.32,2.32c-5.431-1.541-10.462-.5-16.418,1.03a3.627,3.627,0,0,0-1.684.962L19.4,11.365l1.488-1.488a1.2,1.2,0,0,0,0-1.694l-5.13-5.13a1.2,1.2,0,0,0-1.694,0L10.594,6.52a1.2,1.2,0,0,0,1.694,1.694l2.621-2.621L18.345,9.03l-1.487,1.488h0L7.362,20.013h0L6.328,21.047,2.891,17.61,5.512,14.99A1.2,1.2,0,0,0,3.818,13.3L.351,16.763a1.2,1.2,0,0,0,0,1.694l5.13,5.13a1.2,1.2,0,0,0,1.694,0l1.034-1.033,2.771,2.771a7.691,7.691,0,0,0,2.211,6.058l.515.517-1.2,1.2a2.949,2.949,0,0,0-.838,2.637,4.135,4.135,0,0,0,1.183,2.2,4.041,4.041,0,0,0,2.288,1.2,3.388,3.388,0,0,0,.084.41A4.408,4.408,0,0,0,18.2,42.533a3.49,3.49,0,0,0,.415.084,3.489,3.489,0,0,0,.084.415,4.408,4.408,0,0,0,2.985,2.985,3.312,3.312,0,0,0,.415.084,3.32,3.32,0,0,0,.084.415A4.409,4.409,0,0,0,25.173,49.5a3.287,3.287,0,0,0,.851.114,2.947,2.947,0,0,0,2.11-.882l1.18-1.18.983.983a3.021,3.021,0,0,0,2.479.826,4.072,4.072,0,0,0,3.517-3.488,4.082,4.082,0,0,0,3.488-3.488A4.074,4.074,0,0,0,43.265,38.9a3.964,3.964,0,0,0,2.327-1.154,3.453,3.453,0,0,0,.335-4.842l-.987-.987L47.9,28.953a7.692,7.692,0,0,0,2.212-6.059l2.772-2.771,1.26,1.261a1.2,1.2,0,0,0,1.694,0l5.13-5.131a1.2,1.2,0,0,0,0-1.694Zm-45.533,22.2a1.789,1.789,0,0,1-.9-.514c-.009-.009-.888-.9-.345-1.445l1.2-1.2,1.788,1.793-1.2,1.2h0A.568.568,0,0,1,15.441,36.756Zm3.385,3.462a2.02,2.02,0,0,1-1.291-1.291.593.593,0,0,1,.147-.647l1.195-1.194,1.787,1.793L19.473,40.07h0A.593.593,0,0,1,18.825,40.218ZM22.309,43.7a2.019,2.019,0,0,1-1.29-1.291.592.592,0,0,1,.147-.647l1.19-1.189,1.787,1.793-1.187,1.187A.592.592,0,0,1,22.309,43.7Zm3.484,3.484A2.02,2.02,0,0,1,24.5,45.9a.592.592,0,0,1,.147-.647l1.185-1.185,1.787,1.793L26.44,47.039A.593.593,0,0,1,25.793,47.186ZM48.011,21.612a1.2,1.2,0,0,0-.335,1.043,5.3,5.3,0,0,1-1.465,4.6l-2.965,2.965-.351-.351A1.2,1.2,0,0,0,41.2,31.567l1.192,1.193.006.005.005.005L44.233,34.6c.264.264.177.943-.335,1.455s-1.19.6-1.455.335a1.2,1.2,0,0,0-1.694,1.694.667.667,0,0,1,.138.532,1.592,1.592,0,0,1-.473.924c-.512.512-1.19.6-1.455.335a1.2,1.2,0,0,0-1.694,1.694.667.667,0,0,1,.138.532,1.69,1.69,0,0,1-1.4,1.4.668.668,0,0,1-.532-.138,1.2,1.2,0,1,0-1.694,1.694c.264.264.177.943-.335,1.455a1.591,1.591,0,0,1-.923.473.668.668,0,0,1-.532-.138l-1.828-1.828L23.2,38.033,16.287,31.1c-.013-.015-.025-.029-.039-.043s-.027-.025-.041-.037l-1.321-1.325a5.3,5.3,0,0,1-1.465-4.6,1.2,1.2,0,0,0-.335-1.042L9.9,20.86l7.8-7.8,2.512,2.512a3.651,3.651,0,0,0,.105,1.166c.44,1.72,2.093,2.769,4.211,2.675l4.32-.193,5.572,5.572A1.2,1.2,0,0,0,36.12,23.1l-5.946-5.946a1.2,1.2,0,0,0-.9-.35l-4.848.217c-.362.016-1.559,0-1.784-.876a1.273,1.273,0,0,1,.913-1.54c6.029-1.543,10.69-2.508,15.794-.856a1.2,1.2,0,0,0,1.216-.293l2.827-2.827,7.8,7.8ZM55,18.842,44.241,8.086h0l-1.26-1.26,3.437-3.437L58.433,15.405Zm0,0" transform="translate(0 -0.496)" fill="#1b85e7"/>
  <path id="Path_8579" data-name="Path 8579" d="M58.431,78.543a1.194,1.194,0,0,0,.806-.312h0a1.2,1.2,0,1,0-.806.312Zm0,0" transform="translate(-50.378 -67.086)" fill="#1b85e7"/>
  <path id="Path_8580" data-name="Path 8580" d="M314.823,214.9a1.2,1.2,0,1,0,0,1.694,1.2,1.2,0,0,0,0-1.694Zm0,0" transform="translate(-275.316 -188.91)" fill="#1b85e7"/>
</svg>
